<?xml version="1.0" standalone="no"?>
<!DOCTYPE svg PUBLIC "-//W3C//DTD SVG 20010904//EN"
 "http://www.w3.org/TR/2001/REC-SVG-20010904/DTD/svg10.dtd">
<svg version="1.0" xmlns="http://www.w3.org/2000/svg"
 width="1280.000000pt" height="848.000000pt" viewBox="0 0 1280.000000 848.000000"
 preserveAspectRatio="xMidYMid meet">
<metadata>
Created by potrace 1.15, written by Peter Selinger 2001-2017
</metadata>
<g transform="translate(0.000000,848.000000) scale(0.100000,-0.100000)"
fill="#03a9f4" stroke="none">
<path d="M6590 7599 c0 -10 -2 -9 165 -74 142 -56 490 -223 606 -292 75 -44
120 -86 106 -99 -3 -3 -68 13 -144 34 -167 48 -223 60 -207 43 6 -7 44 -19 85
-28 124 -25 225 -61 444 -158 333 -147 427 -174 653 -182 l142 -6 0 -65 c0
-61 3 -69 32 -99 28 -29 32 -39 29 -81 -1 -26 -12 -80 -23 -120 -11 -41 -17
-76 -15 -79 3 -2 14 0 25 6 12 6 45 11 74 11 l53 -1 -49 -19 c-42 -17 -136
-92 -136 -110 0 -3 27 -3 60 -2 59 4 60 3 60 -22 0 -26 1 -27 50 -20 43 6 50
4 50 -10 0 -45 -18 -56 -92 -56 l-71 0 -52 49 c-66 63 -110 75 -230 67 -69 -5
-94 -10 -105 -24 -8 -10 -33 -30 -56 -45 -22 -15 -50 -40 -61 -55 -35 -47
-115 -202 -105 -202 5 0 27 6 48 14 22 7 57 16 79 20 l40 8 -60 -42 c-33 -23
-79 -53 -102 -68 -23 -15 -43 -29 -43 -32 0 -7 100 -63 130 -73 14 -4 54 -11
90 -15 l65 -7 -36 -37 -36 -37 -149 50 c-82 28 -157 59 -167 70 -10 10 -41 31
-68 45 -28 14 -74 41 -102 61 -29 20 -54 38 -56 39 -2 2 6 16 18 33 59 82 29
124 -86 120 -37 -1 -78 -7 -90 -12 -16 -7 -28 -5 -50 10 -15 11 -53 31 -84 45
l-56 26 5 51 c9 95 -36 127 -200 142 -55 5 -118 16 -140 24 -38 13 -43 12 -54
-3 -40 -52 18 -166 97 -195 14 -5 15 -13 7 -58 -5 -30 -14 -61 -19 -71 -13
-24 -3 -27 113 -34 94 -6 107 -5 146 15 23 12 47 30 54 40 11 19 13 19 61 -6
54 -27 51 -43 -7 -43 -16 0 -37 -7 -46 -15 -23 -20 -103 -22 -350 -6 -112 7
-198 17 -201 23 -4 6 -17 8 -30 5 -31 -8 -49 9 -49 48 0 50 -32 82 -95 96 -74
17 -114 3 -197 -66 -37 -30 -75 -55 -85 -55 -10 0 -63 16 -117 35 -112 40
-106 38 -106 26 0 -12 139 -77 204 -96 28 -8 107 -23 176 -33 l125 -18 0 -33
c0 -30 -4 -35 -57 -57 -52 -22 -58 -22 -87 -8 -17 8 -39 13 -49 10 -10 -4 -33
1 -51 10 -23 11 -45 14 -73 10 -60 -10 -77 -23 -99 -73 -11 -25 -22 -43 -26
-40 -3 4 -1 12 5 19 5 7 12 24 14 38 3 22 -2 26 -46 37 -62 15 -120 5 -180
-33 -25 -16 -45 -32 -46 -35 0 -3 19 -12 43 -20 l42 -14 -68 -3 c-58 -3 -68
-5 -65 -20 4 -19 34 -19 226 -7 l92 7 0 -31 c0 -16 -4 -41 -10 -55 -5 -14 -6
-26 -2 -26 37 0 194 23 220 31 51 17 100 65 108 105 6 31 13 38 61 60 31 13
57 24 59 24 2 0 4 -13 4 -29 0 -17 4 -33 10 -36 13 -8 133 16 145 30 6 6 31
19 58 29 51 19 77 47 77 84 l0 23 123 -8 c154 -10 244 -10 280 0 26 7 27 6 17
-14 -7 -11 -9 -24 -5 -27 12 -12 179 -28 215 -21 19 4 49 10 65 13 20 4 37 1
50 -9 l20 -16 -20 -11 c-40 -23 -75 -71 -91 -124 l-15 -53 -87 5 c-48 3 -103
12 -123 19 -38 14 -101 6 -114 -15 -4 -6 -51 -10 -105 -10 -89 0 -101 -2 -127
-24 -15 -12 -53 -31 -83 -41 -83 -27 -187 -77 -172 -82 8 -3 61 7 118 22 57
16 107 26 110 22 10 -10 -5 -41 -36 -75 -36 -40 -37 -48 -7 -56 74 -20 176 3
214 48 18 20 24 24 19 11 -4 -11 -20 -55 -36 -97 l-29 -78 58 0 c209 0 425
164 368 279 l-16 32 37 -7 c20 -3 64 -12 97 -19 137 -31 174 -35 343 -35 l177
0 -1 -80 c-1 -44 -7 -86 -13 -94 -14 -17 -12 -18 59 -41 67 -22 179 -23 237
-2 l41 16 -10 -30 -10 -29 -169 0 c-299 0 -379 -16 -606 -119 -125 -57 -223
-91 -349 -121 -106 -25 -102 -25 -96 5 9 52 -39 70 -101 39 -18 -9 -63 -35
-101 -56 -70 -41 -74 -56 -16 -59 18 -1 -194 -77 -218 -79 -1 0 5 11 13 24 22
34 6 62 -49 86 -70 31 -117 35 -162 12 -46 -24 -159 -141 -147 -152 4 -5 31
-17 58 -28 l50 -20 -30 -12 c-16 -7 -65 -25 -107 -40 l-76 -29 -37 35 c-52 49
-90 66 -161 72 -79 6 -88 -8 -32 -49 62 -45 98 -62 143 -69 l40 -6 -71 -17
c-117 -27 -252 -32 -399 -13 -95 12 -137 22 -157 37 l-28 20 0 -24 c0 -22 6
-25 51 -31 43 -6 49 -9 35 -19 -8 -7 -23 -32 -31 -57 -9 -24 -22 -54 -30 -66
-14 -22 -13 -23 55 -35 153 -27 266 35 220 122 -10 18 -6 19 97 19 l108 -1
-35 -18 c-19 -11 -56 -39 -82 -63 -46 -43 -48 -46 -48 -101 l0 -56 101 34
c110 38 158 63 189 102 21 27 27 87 9 98 -16 11 79 51 238 100 80 25 147 45
150 45 2 0 -7 -14 -21 -31 -32 -38 -33 -95 -7 -244 l18 -100 29 3 c77 8 197
101 233 182 36 79 23 178 -29 230 -12 12 -20 23 -18 25 4 3 376 125 383 125 3
0 -10 -20 -29 -45 -50 -65 -59 -100 -46 -181 6 -37 13 -71 16 -75 8 -13 63 9
114 46 63 46 108 98 132 152 22 49 16 67 -33 106 l-32 25 54 15 c30 9 92 25
139 37 144 36 253 71 297 95 59 32 94 38 179 30 66 -6 74 -9 74 -27 0 -47 -27
-105 -66 -144 l-41 -41 -83 4 c-97 4 -100 2 -100 -74 0 -40 -5 -58 -22 -77
-25 -27 -127 -80 -353 -184 -171 -78 -308 -155 -284 -160 16 -3 382 159 524
231 72 38 89 42 173 47 50 3 92 3 92 1 0 -2 -12 -20 -26 -38 -41 -54 -15 -63
29 -11 21 24 51 59 69 79 18 20 36 49 40 65 9 34 0 96 -16 106 -7 5 29 48 94
114 l105 106 215 -6 c166 -5 227 -3 268 7 l52 14 0 -62 c0 -45 6 -73 23 -105
28 -54 42 -59 60 -23 9 15 26 39 40 52 l25 23 17 -31 16 -31 37 38 c20 21 51
49 67 62 17 14 38 36 47 49 l17 24 10 -24 c28 -73 44 -109 48 -109 2 0 13 5
23 10 17 9 21 6 26 -15 l6 -26 23 21 23 22 12 -36 c6 -20 16 -38 21 -42 5 -3
34 4 64 15 30 11 55 18 55 15 0 -2 -9 -22 -20 -44 -24 -48 -24 -50 -3 -50 9 0
43 -8 75 -17 45 -14 57 -21 52 -33 -4 -8 -9 -40 -11 -70 l-5 -55 39 -13 c75
-25 109 -31 147 -25 l39 6 -7 -64 c-4 -38 -3 -76 3 -92 l10 -27 37 25 c20 14
73 36 116 50 130 39 178 91 200 216 10 59 34 89 58 74 6 -4 29 -6 53 -7 35 0
49 -7 88 -43 44 -41 82 -65 131 -84 21 -8 23 -5 25 23 2 17 5 56 9 86 5 48 2
60 -20 93 -28 41 -32 52 -15 41 6 -3 15 0 20 7 6 11 14 9 39 -9 33 -25 50 -22
50 9 0 25 46 27 54 2 6 -23 33 -201 41 -278 7 -64 -10 -148 -62 -310 -45 -141
-63 -161 -88 -102 -12 28 -14 30 -21 13 -7 -18 -9 -17 -30 10 l-23 29 -12 -34
-12 -33 -24 31 c-46 58 -168 101 -290 101 -72 0 -81 -13 -27 -36 46 -19 41
-24 -13 -15 -41 8 -80 -1 -52 -11 8 -3 -4 -13 -28 -23 -50 -20 -54 -30 -16
-40 19 -4 23 -9 14 -15 -8 -4 -11 -13 -7 -18 4 -7 -8 -14 -31 -18 -67 -12 -73
-21 -26 -42 l42 -19 -37 -36 c-22 -22 -48 -37 -61 -37 -56 0 -300 54 -369 81
-108 43 -182 59 -312 65 -83 4 -134 2 -185 -9 -64 -14 -71 -13 -79 2 -5 9 -26
32 -45 52 -29 29 -57 43 -137 68 -56 17 -105 31 -109 31 -22 0 152 -148 218
-186 17 -10 14 -14 -34 -41 -139 -77 -265 -113 -398 -113 l-56 0 -13 68 c-21
112 -72 200 -136 234 -16 9 -18 7 -13 -11 6 -24 5 -23 -65 27 -27 19 -48 32
-48 29 0 -3 11 -25 25 -48 30 -54 31 -63 4 -56 -26 7 -23 -1 36 -93 25 -39 43
-75 39 -79 -3 -3 -11 3 -18 14 -22 39 -106 121 -145 143 l-40 23 15 -38 c9
-21 23 -50 30 -65 18 -34 16 -34 -52 -3 -30 14 -66 25 -80 25 -38 0 -88 -24
-112 -54 -22 -29 -86 -175 -79 -182 15 -15 287 63 389 112 21 10 41 15 44 11
10 -10 -44 -50 -94 -69 -24 -9 -68 -36 -98 -60 -31 -24 -70 -53 -87 -66 -91
-66 -147 -147 -147 -213 0 -37 29 -92 63 -119 21 -18 22 -17 50 49 15 36 51
98 79 136 29 39 59 95 69 125 13 42 24 59 48 74 l32 19 -5 -57 c-4 -52 4 -71
19 -46 12 19 84 50 118 50 18 0 56 11 83 25 41 21 63 25 134 25 95 0 133 9
300 70 196 72 213 77 275 84 l60 7 -66 -68 c-36 -37 -81 -86 -101 -109 -33
-38 -37 -40 -59 -28 -48 26 -81 17 -155 -41 -38 -31 -84 -61 -101 -67 -18 -7
-33 -15 -33 -18 0 -7 129 -39 172 -43 l26 -2 -49 -80 c-27 -44 -100 -171 -161
-282 l-111 -202 -33 69 c-46 97 -121 162 -207 182 -65 14 -114 -16 -257 -160
-70 -70 -132 -137 -139 -150 -11 -21 -10 -22 24 -22 45 0 94 -21 155 -64 67
-48 133 -69 195 -61 67 8 148 55 181 105 15 22 29 38 32 35 16 -16 -208 -305
-346 -444 l-94 -96 -14 32 c-32 76 -86 72 -240 -17 -67 -38 -128 -70 -135 -71
-17 0 133 -47 180 -56 l34 -6 -44 -23 c-24 -12 -66 -26 -94 -29 -27 -4 -66
-13 -86 -20 -71 -26 -399 -58 -336 -34 15 6 27 15 25 19 -5 12 -125 110 -136
110 -16 0 -35 -57 -28 -85 3 -13 19 -31 34 -39 24 -14 5 -15 -208 -15 -129 0
-244 4 -254 8 -17 6 -15 9 13 21 36 14 66 53 58 73 -9 25 -140 207 -148 207
-5 0 -9 -15 -9 -33 0 -20 -13 -51 -34 -82 -39 -59 -37 -72 24 -132 l43 -41
-49 10 c-27 5 -60 12 -73 14 -18 4 -21 8 -12 17 30 30 -3 76 -128 175 -53 42
-99 81 -103 86 -10 15 -13 8 -26 -66 -19 -105 6 -148 114 -194 35 -15 64 -33
64 -39 0 -14 31 -25 68 -25 12 0 22 -3 22 -7 0 -5 -30 -30 -66 -57 -75 -57
-76 -55 46 -82 82 -17 119 -10 167 31 33 29 37 36 26 53 -11 19 -10 20 20 11
40 -11 523 -11 632 1 44 4 81 7 82 6 1 -1 -39 -19 -90 -40 -51 -21 -155 -71
-232 -111 -113 -59 -154 -75 -214 -84 -86 -13 -102 -9 -34 9 74 19 75 19 71
33 -3 6 -21 13 -42 15 -30 3 -50 -5 -96 -35 -33 -21 -59 -41 -60 -45 0 -4 35
-8 78 -10 l77 -3 -62 -38 c-34 -21 -97 -63 -140 -94 l-77 -55 -64 6 c-91 9
-170 42 -191 77 -20 36 -28 36 -36 0 -12 -56 35 -177 80 -207 23 -15 33 -15
87 -4 47 10 78 26 132 67 l71 53 3 -65 c2 -36 6 -65 10 -65 25 2 150 101 167
133 19 36 19 38 2 68 -10 18 -16 33 -15 34 28 27 427 235 528 275 52 21 220
80 227 80 2 0 0 -8 -5 -17 -5 -10 -13 -49 -16 -88 -4 -38 -10 -90 -13 -114
l-6 -45 28 22 c15 12 63 33 107 46 111 35 162 66 187 119 36 75 24 119 -43
154 -18 10 -18 11 5 23 53 27 169 122 236 191 89 93 336 388 347 415 1 1 10 4
22 8 19 6 22 2 27 -49 9 -91 49 -150 146 -215 94 -63 89 -34 42 -255 -16 -77
-28 -141 -26 -143 2 -2 27 69 56 157 l53 161 28 -27 c15 -14 30 -39 33 -55 l7
-29 35 46 c55 73 86 150 91 229 4 77 -18 194 -44 234 -9 13 -14 25 -12 26 2 2
23 11 48 20 65 25 90 44 90 66 0 16 -7 20 -32 20 -29 0 -30 1 -15 18 28 30 47
89 47 142 0 28 5 60 11 71 8 16 7 26 -6 45 -8 13 -21 24 -28 24 -6 0 -47 48
-89 106 l-77 106 21 32 c11 17 35 40 51 51 21 13 34 32 38 53 11 52 23 59 58
29 21 -17 52 -29 103 -37 40 -7 83 -16 96 -21 20 -8 22 -6 22 25 0 52 -58 158
-97 176 -18 8 -33 18 -33 21 0 11 119 118 149 134 54 27 131 19 249 -26 147
-56 172 -64 287 -89 55 -12 113 -25 129 -28 15 -4 -19 -7 -77 -7 -98 0 -107
-2 -132 -25 -27 -25 -27 -26 -21 -120 4 -52 14 -125 22 -163 l16 -69 -38 -35
-39 -35 37 -15 37 -15 -21 -28 c-22 -30 -37 -91 -38 -152 l0 -38 50 0 49 0
-20 -34 c-25 -43 -35 -132 -20 -178 11 -34 12 -34 59 -28 26 3 58 12 70 19 13
7 25 11 26 9 1 -2 12 -22 24 -46 18 -35 20 -50 13 -82 -5 -21 -7 -51 -4 -67 8
-51 36 -154 44 -158 4 -3 35 27 69 65 59 67 64 70 81 54 16 -15 21 -14 64 16
54 37 125 52 125 27 0 -27 21 -30 46 -6 13 12 24 17 24 11 0 -7 7 -12 15 -12
12 0 11 -6 -7 -30 -15 -21 -22 -43 -21 -73 1 -23 2 -53 2 -67 2 -43 -39 -234
-58 -270 -10 -19 -36 -48 -59 -64 -40 -28 -41 -28 -80 -13 -177 71 -388 -25
-368 -168 l5 -43 -53 -4 c-33 -3 -65 -13 -84 -27 l-32 -22 -26 20 c-15 12 -33
21 -41 21 -25 0 -122 -101 -149 -156 -30 -61 -28 -116 5 -171 l19 -31 -134
-101 -134 -101 -47 49 c-54 55 -95 71 -184 71 -76 0 -143 -22 -222 -73 l-67
-43 65 -46 c94 -69 122 -81 199 -87 l68 -6 -46 -33 c-46 -33 -47 -34 -80 -18
-48 23 -100 20 -155 -8 -46 -22 -48 -23 -59 -5 -28 45 -136 26 -191 -34 -22
-24 -25 -25 -47 -11 -38 25 -65 14 -106 -44 -20 -30 -39 -59 -41 -65 -3 -8
-13 -4 -28 9 -34 30 -90 46 -151 43 -67 -3 -103 14 -88 41 7 13 7 28 -1 47
-12 34 -74 99 -111 119 -41 21 -101 18 -134 -8 -35 -28 -93 -90 -94 -100 0 -5
32 -8 70 -8 78 0 167 -25 230 -65 55 -35 55 -41 4 -54 -44 -11 -45 -13 -30
-30 16 -17 11 -19 -121 -30 -84 -8 -216 -30 -338 -56 -170 -38 -404 -75 -468
-75 -16 0 -16 3 5 30 22 30 22 30 2 56 -11 15 -43 39 -71 54 -29 16 -65 37
-81 49 l-29 21 -52 -55 c-29 -31 -51 -63 -51 -76 0 -12 16 -37 36 -55 l35 -34
-64 0 c-35 0 -125 3 -201 7 -127 6 -135 7 -121 23 8 9 15 31 15 49 0 27 -11
43 -67 97 -56 52 -69 61 -71 45 -2 -11 -19 -36 -38 -56 -40 -43 -49 -71 -34
-109 l11 -29 -52 7 c-28 4 -63 14 -77 24 -18 12 -44 16 -91 14 -68 -2 -190 27
-284 67 l-46 20 52 50 52 50 -29 11 c-16 6 -47 26 -68 45 -41 38 -86 46 -108
20 -11 -13 -16 -12 -42 10 -16 14 -34 25 -39 25 -5 0 -26 16 -46 36 -56 57
-143 106 -298 170 -17 7 -16 9 12 12 l31 3 -5 62 c-3 34 -10 70 -15 80 -7 14
-4 17 19 17 l28 0 -25 20 c-14 11 -51 33 -82 48 -32 15 -58 32 -58 37 0 6 -19
21 -41 33 l-41 24 31 32 c17 18 31 35 31 38 0 3 -15 11 -32 19 -18 7 -52 25
-75 41 -23 15 -54 28 -68 28 -27 0 -27 1 -11 25 9 13 16 28 16 33 0 14 -144
35 -190 28 -36 -6 -40 -4 -40 15 0 19 -5 20 -62 17 -35 -1 -68 1 -75 5 -7 5
-14 -4 -18 -25 -11 -50 -14 -50 -47 -12 l-31 35 -70 -7 c-38 -4 -78 -7 -89 -8
-38 -2 -50 -54 -19 -85 19 -19 18 -19 -25 -26 -27 -4 -49 -14 -58 -27 -23 -33
-56 -16 -57 30 0 20 -1 107 -2 192 -3 170 -12 208 -64 256 -79 74 -209 107
-425 108 l-147 1 -8 35 c-17 70 -122 107 -204 71 -54 -24 -176 -129 -157 -136
69 -25 134 -45 150 -45 21 0 22 -1 7 -34 -19 -40 -60 -49 -249 -54 -170 -4
-176 -3 -225 21 -70 35 -109 41 -164 26 -57 -15 -57 -15 -40 -35 12 -14 6 -15
-67 -10 -43 3 -144 11 -224 16 -188 14 -535 65 -468 69 24 1 78 50 78 70 0 9
-32 63 -72 119 l-71 102 -16 -48 c-9 -26 -26 -62 -39 -79 -31 -44 -28 -67 19
-114 34 -34 37 -40 17 -34 -71 21 -88 30 -88 48 0 32 -38 74 -138 154 -54 42
-99 80 -100 85 -8 19 -22 6 -22 -21 0 -17 -5 -33 -11 -37 -18 -11 -5 -102 20
-135 l22 -30 -23 5 c-116 24 -131 30 -169 66 -21 20 -41 35 -44 32 -9 -10 -5
-89 7 -123 18 -53 59 -109 84 -115 38 -10 131 24 174 62 l40 36 35 -22 c20
-12 57 -30 82 -40 l45 -17 -66 -49 -67 -48 49 -17 c88 -30 145 -33 196 -10 28
12 51 30 58 46 10 22 16 25 37 20 21 -6 239 -45 249 -45 1 0 -2 -9 -8 -20 -11
-21 -16 -147 -6 -157 3 -3 38 16 78 43 48 33 78 61 88 83 l15 33 82 -7 c63 -4
479 -22 582 -25 11 0 13 -12 8 -58 -4 -32 -9 -66 -13 -75 -5 -13 0 -17 19 -17
51 0 182 22 219 37 51 20 88 66 88 108 0 27 5 35 31 45 35 15 69 63 70 100 1
46 17 -9 24 -83 6 -58 9 -68 23 -62 10 4 42 11 72 18 30 6 60 16 65 22 6 7 31
20 58 29 50 19 67 39 67 80 0 30 17 33 102 15 77 -17 131 -43 178 -85 83 -75
101 -151 79 -324 -15 -118 -15 -242 -1 -281 8 -21 7 -29 -9 -42 -23 -20 -25
-37 -4 -37 8 0 15 -2 15 -3 0 -13 -33 -67 -51 -83 -39 -35 -51 -71 -39 -110
13 -40 22 -42 58 -13 l27 21 5 -44 c4 -38 8 -43 33 -46 23 -3 27 -8 27 -36 0
-35 18 -96 28 -96 3 0 18 12 34 27 24 23 77 39 78 23 1 -3 10 -16 20 -29 17
-19 23 -21 35 -11 13 10 19 10 34 -4 12 -11 21 -13 25 -7 8 12 68 43 73 37 2
-2 -1 -16 -7 -31 -6 -15 -8 -43 -4 -61 6 -33 6 -33 35 -19 16 9 36 23 46 33
21 22 82 28 87 10 3 -7 7 -25 10 -39 9 -42 37 -68 96 -89 77 -28 84 -27 76 15
-7 34 -6 35 23 35 17 0 42 5 57 12 22 10 25 17 21 45 -5 30 -4 33 29 39 28 5
33 10 29 25 -4 12 -1 21 7 23 7 2 37 11 66 21 29 9 59 14 67 11 20 -7 19 0 -6
35 -11 16 -28 29 -37 30 -9 1 3 5 28 10 41 8 52 6 125 -30 44 -21 100 -50 123
-65 37 -23 42 -30 42 -65 0 -34 17 -142 23 -146 1 -1 40 1 87 5 81 6 87 5 115
-18 43 -36 197 -109 291 -138 l82 -26 -29 -56 c-16 -31 -29 -69 -29 -84 l0
-27 103 48 c156 73 161 74 279 61 153 -16 143 -12 143 -67 0 -46 2 -49 40 -68
49 -23 134 -25 168 -2 15 9 27 30 31 50 4 19 12 39 19 45 6 5 82 12 167 15 85
3 209 13 275 21 168 23 484 76 515 88 26 10 231 37 287 38 l31 0 -20 -38 c-24
-43 -20 -91 10 -130 l18 -24 28 41 c16 23 49 60 75 83 l46 43 5 -80 c6 -82 17
-110 73 -172 25 -28 32 -29 34 -2 1 11 31 48 67 82 l64 62 98 -73 c111 -82
100 -85 129 29 18 71 92 198 125 213 14 6 27 2 50 -18 34 -28 60 -34 60 -13 0
8 28 42 63 76 61 60 63 62 111 59 l48 -3 24 -62 c38 -103 208 -378 226 -367
17 11 77 144 89 200 8 36 9 64 3 86 -13 43 -80 94 -153 115 l-57 17 86 42 85
42 -30 12 c-49 20 -173 23 -235 7 -36 -10 -50 -11 -40 -4 86 67 272 201 383
277 l138 94 52 -52 52 -51 37 77 c25 53 60 104 108 157 79 88 109 137 112 190
3 38 9 43 28 20 7 -9 43 -31 79 -50 79 -42 137 -87 161 -127 l17 -29 60 65
c96 105 183 233 183 270 0 33 -20 70 -55 98 -18 15 -19 17 -4 35 34 38 48 84
64 203 18 138 36 183 97 241 34 32 48 38 87 40 56 3 71 -4 71 -35 0 -44 32
-116 65 -145 18 -16 57 -37 87 -46 29 -10 72 -28 95 -40 23 -13 44 -20 47 -17
3 3 6 35 6 71 l0 66 44 -3 c43 -4 112 19 128 42 7 10 4 44 -8 87 -3 11 7 19
35 27 21 7 48 12 60 12 25 0 25 6 6 40 -19 34 -18 40 5 40 18 0 20 7 20 54 0
30 5 58 11 61 6 4 8 12 6 19 -3 7 16 11 63 11 38 0 71 3 75 7 4 4 0 17 -9 30
-24 34 -21 51 9 46 31 -6 31 -6 1 40 l-23 37 36 40 c31 35 47 43 114 59 42 11
77 25 77 31 0 16 -105 115 -122 115 -11 0 -71 130 -63 138 1 1 15 -2 30 -8 18
-7 25 -15 21 -25 -7 -18 3 -19 27 -1 10 8 27 12 37 9 14 -4 20 0 20 12 0 9 12
32 26 51 32 41 53 97 54 144 l1 35 30 -35 c17 -19 45 -65 62 -102 17 -38 35
-68 39 -68 18 0 58 77 58 113 0 46 -12 71 -56 117 l-34 36 45 24 c25 14 45 27
45 30 0 3 -19 16 -42 27 l-43 21 50 23 c65 29 217 38 288 16 33 -11 47 -12 47
-4 0 25 -68 123 -100 145 -45 30 -85 28 -158 -9 -66 -33 -102 -72 -102 -112 0
-35 -35 -48 -80 -29 -52 22 -142 66 -166 82 -21 13 -21 16 -8 53 8 22 14 45
14 51 0 13 -133 56 -173 56 -19 0 -26 4 -21 11 5 9 -6 11 -38 7 -30 -3 -45 -1
-45 6 1 73 -4 96 -22 96 -11 0 -23 4 -26 10 -3 5 -15 14 -25 20 -17 9 -21 5
-31 -30 l-12 -40 -23 23 c-12 12 -59 35 -104 51 -91 32 -100 29 -100 -29 0
-29 -2 -31 -32 -28 -18 2 -40 -1 -48 -7 -16 -11 -14 -13 52 -62 l23 -17 -22 6
c-13 3 -23 1 -23 -5 0 -6 -15 -12 -32 -14 -18 -2 -31 -7 -28 -13 4 -8 -79 -27
-88 -20 -2 2 16 51 64 170 25 63 28 85 32 216 3 94 0 164 -8 195 -19 78 -27
154 -17 154 5 0 49 -38 97 -85 l87 -85 20 72 c12 40 24 88 28 106 5 22 12 32
25 32 32 0 76 47 115 122 21 40 39 74 40 76 1 1 16 -5 34 -14 36 -18 139 -35
147 -23 2 4 8 30 14 57 12 63 -3 164 -31 209 l-21 33 63 0 62 0 -7 80 c-8 93
-18 125 -52 161 l-25 26 45 17 c41 16 44 19 33 37 -6 10 -31 33 -55 51 -24 18
-38 34 -33 36 6 2 11 23 11 47 0 50 -8 57 -97 85 l-52 16 29 44 c17 25 30 59
30 75 0 52 -50 107 -132 146 -41 19 -48 27 -48 52 0 23 -15 43 -72 97 -65 62
-70 69 -48 70 14 0 41 10 60 22 l35 21 -63 14 c-55 13 -62 17 -57 34 5 15 2
19 -14 19 -12 0 -21 5 -21 10 0 6 16 10 35 10 53 0 44 25 -17 49 -29 11 -45
20 -35 20 9 1 17 6 17 11 0 8 -13 12 -40 12 -3 0 -27 -2 -55 -6 l-50 -6 42 22
c23 12 44 30 46 40 5 17 0 18 -71 12 -103 -8 -205 -30 -261 -55 -50 -22 -111
-75 -111 -96 0 -7 -4 -13 -10 -13 -5 0 -10 7 -10 15 0 8 -4 15 -10 15 -5 0
-10 11 -10 25 0 35 -14 31 -36 -10 -19 -36 -19 -36 -36 -15 -16 20 -16 20 -23
-10 -11 -48 -38 -60 -136 -60 -77 0 -87 2 -85 18 1 13 -7 17 -37 17 -25 0 -37
5 -37 14 0 9 -8 12 -25 9 -39 -8 -30 7 26 42 42 26 49 33 39 45 -8 9 -30 15
-56 15 -43 0 -44 1 -44 33 -1 17 -6 42 -13 54 l-12 21 -105 -39 c-63 -24 -114
-49 -127 -64 l-22 -24 -16 49 c-9 28 -19 50 -22 50 -3 0 -18 -11 -35 -25 -37
-32 -53 -31 -74 0 -14 21 -15 31 -5 51 19 43 14 64 -16 64 -22 0 -25 2 -13 10
8 5 27 10 43 10 39 0 34 11 -21 41 -60 34 -98 42 -140 30 -30 -9 -32 -8 -27
10 5 15 2 19 -19 19 -14 0 -28 -4 -31 -10 -13 -22 -25 -8 -25 30 0 45 1 44
-37 28 -64 -27 -78 -61 -49 -117 l15 -28 -101 -7 c-119 -7 -167 -25 -70 -26
71 0 83 -14 20 -24 -55 -9 -78 -30 -78 -73 0 -26 -4 -33 -19 -33 -11 0 -26 -6
-33 -13 -7 -7 -34 -28 -60 -45 -56 -38 -60 -52 -18 -52 30 0 30 0 16 -27 -22
-43 -44 -69 -51 -62 -3 4 -12 47 -19 96 -21 138 -58 206 -143 264 -39 27 -43
28 -43 11 0 -11 25 -45 55 -76 36 -37 55 -64 55 -80 0 -22 -5 -25 -57 -32 -85
-10 -269 3 -343 25 -36 10 -114 40 -175 66 -60 27 -168 69 -240 96 -117 42
-130 49 -127 69 5 31 -37 72 -143 137 -120 75 -398 211 -526 258 -125 46 -239
76 -239 64z m1275 -1890 l80 -34 -130 -5 c-71 -3 -132 -4 -134 -3 -2 2 5 6 15
9 27 10 64 45 64 62 0 8 6 12 13 9 6 -2 48 -20 92 -38z m-838 -86 c-3 -10 -5
-4 -5 12 0 17 2 24 5 18 2 -7 2 -21 0 -30z m1617 -1937 c32 -39 37 -49 25 -57
-8 -5 -18 -9 -22 -9 -7 0 -45 -73 -85 -162 -7 -15 73 -7 127 11 l53 19 -5 -33
c-4 -25 -88 -175 -113 -204 -3 -3 -19 9 -37 26 -62 59 -159 92 -221 75 -20 -6
-36 -9 -36 -7 0 3 140 262 206 383 l29 52 20 -24 c11 -13 38 -44 59 -70z
m-3304 -2255 c0 -11 -3 -11 -14 -1 -8 6 -12 18 -9 27 5 12 7 12 14 1 5 -7 9
-19 9 -27z"/>
</g>
</svg>
